<?xml version="1.0" standalone="no"?>
<!DOCTYPE svg PUBLIC "-//W3C//DTD SVG 20010904//EN"
 "http://www.w3.org/TR/2001/REC-SVG-20010904/DTD/svg10.dtd">
<svg version="1.0" xmlns="http://www.w3.org/2000/svg"
 width="851.000000pt" height="851.000000pt" viewBox="0 0 851.000000 851.000000"
 preserveAspectRatio="xMidYMid meet">

<g transform="translate(0.000000,851.000000) scale(0.100000,-0.100000)"
fill="#000000" stroke="none">
<path d="M0 4255 l0 -4255 4255 0 4255 0 0 4255 0 4255 -4255 0 -4255 0 0
-4255z m5014 2205 c368 -885 672 -1608 675 -1605 4 2 261 616 571 1364 l565
1361 293 0 c160 0 292 -2 292 -5 0 -3 -320 -778 -712 -1723 -391 -944 -711
-1721 -711 -1727 0 -5 321 -779 712 -1719 391 -940 711 -1715 711 -1722 0 -12
-51 -14 -285 -14 l-284 0 -14 28 c-8 15 -266 628 -572 1362 -307 734 -561
1338 -564 1342 -3 3 -305 -717 -671 -1600 l-666 -1607 -90 -3 -90 -3 -670
1611 c-431 1039 -672 1606 -677 1598 -5 -7 -262 -623 -571 -1368 l-563 -1355
-283 -3 c-156 -1 -287 1 -292 6 -5 5 310 775 698 1713 389 937 709 1714 711
1726 3 13 -260 658 -706 1731 -391 940 -711 1715 -711 1721 0 8 83 11 288 11
l288 0 568 -1357 c313 -747 571 -1361 575 -1365 3 -4 298 698 655 1560 357
862 658 1586 667 1610 l18 42 88 0 88 0 669 -1610z"/>
<path d="M3572 5200 l-443 -1066 443 -1058 443 -1057 3 1066 c1 587 1 1542 0
2124 l-3 1058 -443 -1067z"/>
<path d="M4501 4115 c1 -1911 2 -2126 16 -2095 8 19 208 500 444 1069 l429
1034 -421 1006 c-232 553 -432 1031 -445 1061 l-23 55 0 -2130z"/>
</g>
</svg>
